<svg enable-background="new 0 0 128 128" viewBox="0 0 128 128" xmlns="http://www.w3.org/2000/svg" xmlns:xlink="http://www.w3.org/1999/xlink"><linearGradient id="a"><stop offset=".1235" stop-color="#689f38"/><stop offset=".3217" stop-color="#73a743"/><stop offset=".6685" stop-color="#8ebd60"/><stop offset=".9927" stop-color="#aed581"/></linearGradient><linearGradient id="b" gradientTransform="matrix(.9765 -.2156 .2156 .9765 -4.5814 10.393)" gradientUnits="userSpaceOnUse" x1="21.507" x2="64.841" xlink:href="#a" y1="21.454" y2="21.454"/><linearGradient id="c" gradientTransform="matrix(-.9904 -.1383 -.1383 .9904 152.27 7.0336)" gradientUnits="userSpaceOnUse" x1="41.596" x2="86.103" xlink:href="#a" y1="25.334" y2="25.334"/><radialGradient id="d" cx="90.293" cy="43.697" gradientUnits="userSpaceOnUse" r="54.581"><stop offset=".1633" stop-color="#f7d3a8"/><stop offset=".3362" stop-color="#fbceaa"/><stop offset=".4422" stop-color="#ffc7ad"/><stop offset=".514" stop-color="#ffb8a1"/><stop offset=".6516" stop-color="#ff9282"/><stop offset=".8393" stop-color="#ff5450"/><stop offset=".8924" stop-color="#ff4141"/><stop offset=".9286" stop-color="#fa4242"/><stop offset=".9711" stop-color="#ec4444"/><stop offset=".9841" stop-color="#e64545"/></radialGradient><radialGradient id="e" cx="43.901" cy="51.406" gradientTransform="matrix(.3116 .9502 -1.0103 .3313 82.162 -7.3387)" gradientUnits="userSpaceOnUse" r="61.587"><stop offset=".1633" stop-color="#f7d3a8"/><stop offset=".3362" stop-color="#fbceaa"/><stop offset=".4422" stop-color="#ffc7ad"/><stop offset=".5134" stop-color="#ffb8a1"/><stop offset=".6498" stop-color="#ff9282"/><stop offset=".8358" stop-color="#ff5450"/><stop offset=".8884" stop-color="#ff4141"/><stop offset=".9242" stop-color="#fa4242"/><stop offset=".9323" stop-color="#f84242"/><stop offset=".9841" stop-color="#e64545"/></radialGradient><path d="m16.5 6.13s10.25 33.95 32.7 35.25c22.46 1.3 21.66-29.91-4.42-33.86-25.31-3.83-28.28-1.39-28.28-1.39z" fill="url(#b)"/><path d="m22.7 8.36c5.05 0 12.33.72 21.64 2.13 12.49 1.89 18.45 10.59 17.88 18.2-.54 7.18-6.38 9.74-11.66 9.74-.38 0-.78-.01-1.17-.03-16.27-.94-25.8-21.87-28.89-29.97.59-.05 1.32-.07 2.2-.07m0-3c-5.27 0-6.2.77-6.2.77s10.25 33.95 32.7 35.25c.46.03.91.04 1.35.04 21.07 0 19.78-30.03-5.77-33.9-11.13-1.69-17.94-2.16-22.08-2.16z" fill="#424242" opacity=".2"/><path d="m110.56 4.94s-7.75 35.59-30.64 38.73-24.59-28.88 1.79-35.02c25.62-5.97 28.85-3.71 28.85-3.71z" fill="url(#c)"/><path d="m106.77 7.52c-2.48 8.48-10.57 30.88-27.26 33.18-.91.13-1.81.19-2.65.19-4.99 0-10.61-2.54-11.43-9.66-.44-3.81.78-7.96 3.34-11.37 3.04-4.05 7.75-6.92 13.62-8.29 13.76-3.21 20.82-3.99 24.38-4.05m.46-3c-3.61 0-10.94.73-25.51 4.13-25.15 5.86-24.78 35.24-4.85 35.24.97 0 2-.07 3.06-.22 22.89-3.15 30.64-38.73 30.64-38.73s-.61-.42-3.34-.42z" fill="#424242" opacity=".2"/><path d="m67.51 19.37c-16.34 5.87-26.31 25.07-28.11 41.51-1.32 12.1 1.16 21.43 5.73 31.13 14.85 31.51 21.67 31.91 21.67 31.91s29.88-8.54 46.4-32.22c11.98-17.17 13.73-39.02 5.42-54.16-9.29-16.9-33.07-24.65-51.11-18.17z" fill="url(#d)"/><path d="m17.9 32.25c-8.14 10.7-10.28 25.7-6.76 40.01 3.51 14.25 11.88 25.52 23.94 33.76 28.75 19.66 31.07 17.89 31.07 17.89s23.24-20.1 23.98-52.05c.48-20.93-7.45-38.88-22.28-47.73-13.72-8.18-27.71-5.71-29.08-5.36-9.11 2.3-16.04 7.13-20.87 13.48z" fill="#666" opacity=".4"/><path d="m14.6 32.25c-8.14 10.7-12.41 25.67-8.89 39.98 3.51 14.25 11.56 26.43 24.69 35.25 29.05 19.52 36.85 16.25 36.85 16.25s18.84-19.92 19.58-51.87c.48-20.93-6.24-40.03-21.07-48.88-13.72-8.18-28.92-4.55-30.3-4.21-9.11 2.3-16.04 7.13-20.86 13.48z" fill="url(#e)"/><path d="m80.81 19.8c14.73 0 28.87 7.71 35.17 19.18 8 14.55 5.89 35.04-5.25 50.99-15.13 21.67-42.5 30.36-44.72 31.03-.04 0-.11.01-.2.01-.95 0-3.88-.27-10.5-2.77-4.89-1.85-11.64-5.7-23.29-13.28-11.91-7.76-19.79-19.13-23.4-33.8-3.04-12.36.08-26.23 8.36-37.11 4.72-6.21 11.18-10.38 19.2-12.4.67-.17 4.24-1 9.23-1 5.97 0 11.44 1.17 16.28 3.49.41.2.85.29 1.29.29.5 0 1-.12 1.45-.37.44-.24.88-.5 1.32-.76.97-.57 1.89-1.12 2.77-1.43 3.8-1.38 7.93-2.07 12.29-2.07m-14.95 101.23s0 .01-.04.03c-.03 0 .03-.03.04-.03m14.95-104.23c-4.57 0-9.09.72-13.29 2.23-1.6.57-3.06 1.58-4.53 2.39-6.22-2.97-12.55-3.78-17.57-3.78-5.4 0-9.3.93-9.96 1.1-9.11 2.29-16.04 7.15-20.86 13.49-8.14 10.7-12.4 25.34-8.88 39.65 3.51 14.25 11.15 26.79 24.69 35.6 10.79 7.02 18.33 11.48 23.87 13.57 6.79 2.57 10.14 2.96 11.56 2.96.63 0 .88-.08.88-.08s29.97-8.57 46.49-32.24c11.98-17.16 13.73-39.03 5.42-54.16-7.14-12.95-22.78-20.73-37.82-20.73z" fill="#424242" opacity=".2"/></svg>